<svg width="1024" height="1024" version="1.1" xmlns="http://www.w3.org/2000/svg" desc="Created with imagetracer.js version 1.2.6" ><path fill="rgb(0,0,0)" stroke="rgb(0,0,0)" stroke-width="1" opacity="0" d="M 0 0 L 1024 0 L 1024 1024 L 0 1024 L 0 0 Z M 334 187 L 333 188 L 323 188 L 322 189 L 309 190 L 292 194 Q 278 199 269 208 Q 248 225 243 257 L 243 278 L 245 288 Q 250 303 259 315 L 281 335 Q 268 352 259 373 L 243 411 L 240 420 L 240 427 Q 242 432 250 430 L 256 421 L 263 402 L 282 364 L 303 333 Q 304 326 301 324 L 282 313 Q 264 300 260 274 L 261 253 Q 265 239 272 230 Q 280 219 293 212 L 301 209 L 316 206 L 336 206 L 348 211 Q 358 219 363 232 L 370 255 L 376 290 Q 379 296 388 297 L 396 296 L 400 294 L 412 284 L 437 254 L 436 248 L 433 245 L 426 247 L 395 277 L 393 276 L 388 250 L 381 227 Q 376 212 366 202 Q 359 193 348 189 L 334 187 Z M 690 192 L 677 196 L 668 202 Q 645 222 628 246 Q 608 261 581 271 Q 574 273 576 268 L 586 259 L 596 248 Q 597 242 594 241 L 590 241 L 584 244 L 547 268 L 531 276 L 524 282 Q 523 288 527 289 L 537 288 L 563 274 L 565 279 Q 568 283 575 285 L 582 285 L 594 281 L 617 268 L 619 267 L 615 274 L 616 280 L 620 282 L 626 281 L 631 276 Q 640 256 654 241 L 682 214 L 693 209 L 702 209 L 717 213 Q 731 219 743 228 L 757 245 L 761 254 L 763 264 L 762 276 L 760 282 L 751 296 L 733 312 L 705 325 L 702 331 L 702 341 L 712 374 L 723 431 L 723 437 L 726 450 L 728 471 L 729 472 L 729 479 L 730 480 L 730 487 L 731 488 L 732 505 L 733 506 L 734 527 L 736 538 L 736 549 L 737 550 L 739 581 L 740 582 L 742 605 L 743 606 L 743 613 L 752 660 L 758 677 L 763 679 L 767 678 L 769 675 L 769 666 L 762 636 L 758 604 L 757 603 L 754 555 L 753 554 L 753 541 L 752 540 L 752 528 L 751 527 L 750 506 L 748 497 L 746 473 L 745 472 L 745 464 L 743 457 L 739 423 L 735 405 L 734 394 L 727 362 L 720 341 L 720 337 Q 738 328 753 317 L 771 297 Q 778 287 780 273 L 779 252 Q 775 236 765 226 Q 749 209 727 199 L 709 193 L 690 192 Z M 541 239 Q 519 249 502 263 Q 491 271 484 283 Q 483 289 488 290 Q 494 291 497 288 L 506 280 Q 508 281 507 278 L 530 261 L 547 251 L 551 246 L 550 242 Q 548 237 541 239 Z M 484 242 L 478 244 L 467 251 L 426 282 L 418 291 Q 417 296 422 297 L 427 297 L 433 294 L 465 270 L 467 269 L 458 287 L 459 292 L 465 294 L 469 292 L 484 267 L 490 253 L 490 246 Q 488 242 484 242 Z M 697 249 L 680 261 L 666 277 L 666 283 L 671 286 L 675 286 L 681 282 L 696 266 L 699 264 L 704 256 L 704 253 Q 703 248 697 249 Z M 721 259 L 716 261 L 689 294 Q 688 300 692 301 L 698 301 L 704 297 Q 714 288 721 277 L 725 270 L 725 263 L 721 259 Z M 321 260 L 319 261 L 316 265 L 317 275 L 325 293 L 331 297 Q 339 299 340 294 L 339 283 L 330 265 L 326 260 L 321 260 Z M 291 263 L 286 267 L 286 275 L 289 284 L 300 303 L 307 309 L 313 308 L 316 303 L 314 295 L 298 267 Q 297 262 291 263 Z M 655 344 L 654 345 L 622 348 L 598 353 L 587 354 L 568 360 L 564 366 L 566 371 L 571 375 Q 565 383 563 396 L 563 416 L 564 421 Q 567 432 573 441 Q 585 458 610 463 L 629 463 L 634 462 Q 648 458 658 449 Q 673 436 677 413 Q 679 394 674 384 L 669 374 L 660 362 L 670 358 L 674 352 L 674 349 L 669 344 L 655 344 Z M 355 349 L 353 350 L 349 355 L 350 360 L 356 365 L 371 371 L 358 391 L 352 412 L 352 428 L 354 439 Q 357 452 365 461 Q 378 480 407 483 L 410 484 L 417 484 L 430 481 Q 442 477 451 469 Q 463 459 471 446 L 478 429 L 480 418 Q 481 391 469 378 L 473 375 L 476 375 L 485 371 L 488 367 L 487 362 L 482 358 L 470 358 L 469 359 L 450 359 L 430 355 L 385 353 L 365 349 L 355 349 Z M 283 393 L 281 394 L 271 408 L 228 497 L 229 502 Q 230 505 237 504 L 240 501 L 290 400 L 289 395 L 286 393 L 283 393 Z M 280 449 L 278 450 L 270 461 L 219 567 L 220 572 L 225 575 L 229 574 L 231 572 Q 257 513 287 459 L 287 453 Q 286 448 280 449 Z M 556 469 L 555 470 L 544 470 L 515 475 Q 507 478 498 479 L 471 488 L 441 502 L 413 522 Q 386 545 371 580 L 358 615 L 351 648 L 350 663 L 349 666 L 349 698 L 350 699 L 350 706 L 352 716 Q 358 739 372 755 Q 384 768 400 777 L 432 792 L 448 797 L 475 803 L 489 804 L 490 805 L 502 805 L 503 806 L 542 805 L 570 800 L 588 795 L 604 789 L 626 778 Q 643 768 657 755 Q 680 733 693 702 L 705 662 L 709 640 L 710 623 L 711 622 L 711 609 L 712 608 L 711 576 L 707 553 Q 699 526 682 509 Q 670 496 654 488 L 622 476 L 591 470 L 556 469 Z M 345 512 L 343 513 L 337 519 L 329 535 Q 328 541 330 544 L 337 545 L 340 542 L 349 525 L 350 516 Q 350 511 345 512 Z M 367 517 L 362 522 L 351 542 Q 350 547 352 549 L 355 550 L 361 549 Q 368 540 373 529 L 374 520 Q 373 516 367 517 Z M 277 518 L 275 519 L 271 523 L 261 543 L 233 607 L 209 657 L 208 666 Q 209 670 217 669 L 221 665 Q 250 594 284 528 L 284 522 Q 283 517 277 518 Z M 265 611 L 263 612 L 258 618 L 247 641 L 200 749 L 201 755 L 204 756 Q 209 757 211 755 L 249 668 L 272 620 L 271 614 Q 270 610 265 611 Z M 741 665 L 738 666 L 734 672 L 735 680 L 747 716 L 754 734 Q 756 741 762 745 Q 767 746 769 744 L 770 742 L 770 736 Q 757 704 747 669 Q 745 665 741 665 Z M 257 688 L 253 692 L 235 727 L 199 805 Q 198 811 203 812 L 210 811 L 215 803 L 249 729 L 264 701 L 266 696 L 266 692 Q 265 687 257 688 Z M 313 721 L 311 722 L 306 729 L 302 744 L 302 770 L 305 784 L 308 786 L 314 785 L 316 782 L 316 772 L 315 771 L 315 746 L 316 745 L 317 734 L 319 730 L 318 724 L 313 721 Z M 738 736 L 733 738 L 732 741 L 732 747 L 734 752 L 763 814 L 769 818 L 773 817 L 776 813 L 773 801 L 745 741 Q 743 736 738 736 Z M 333 741 L 329 746 L 329 761 L 332 776 L 336 788 L 341 793 Q 348 794 349 790 L 349 782 L 340 743 Q 338 739 333 741 Z M 699 787 L 694 791 L 694 800 L 703 825 Q 705 829 712 828 L 715 824 L 715 818 L 713 810 L 705 790 Q 704 786 699 787 Z M 654 798 L 650 804 L 652 819 L 657 831 L 661 833 Q 667 834 668 830 L 668 819 L 662 800 Q 660 796 654 798 Z M 392 800 L 386 805 L 386 817 L 389 827 Q 390 831 398 830 L 401 826 Q 401 812 397 803 L 392 800 Z " /><path fill="rgb(0,0,0)" stroke="rgb(0,0,0)" stroke-width="1" opacity="0" d="M 618.5 371 L 638.5 371 L 642.5 372 L 655 382.5 Q 662 391.5 661 408.5 Q 657.9 426.4 646.5 436 L 632.5 444 L 622.5 446 L 613.5 446 Q 596.8 442.7 588 431.5 L 581 418.5 L 579 402.5 Q 581.3 401.3 580 396.5 L 585 384.5 L 591.5 378 L 603.5 373 L 617.5 372 L 618.5 371 Z M 621 388 L 611 392 L 604 402 Q 603 412 607 417 Q 611 421 618 423 Q 627 423 632 419 Q 636 415 638 409 L 638 403 L 636 397 Q 631 389 621 388 Z " /><path fill="rgb(0,0,0)" stroke="rgb(0,0,0)" stroke-width="1" opacity="0" d="M 394.5 377 L 419.5 377 L 420.5 378 L 440.5 380 L 449.5 383 L 455 388.5 Q 460.1 394.9 462 404.5 L 462 421.5 Q 457 442.5 442.5 454 L 427.5 463 L 419.5 465 L 404.5 465 L 392.5 461 L 380 450.5 L 371 432.5 Q 368.3 424.2 370 411.5 L 377 391.5 L 386.5 381 L 394.5 377 Z M 412 403 L 404 407 Q 398 412 396 420 L 396 429 L 398 434 Q 402 440 410 442 Q 423 444 428 438 L 434 428 Q 436 415 430 410 Q 425 402 412 403 Z " /><path fill="rgb(0,0,0)" stroke="rgb(0,0,0)" stroke-width="1" opacity="0" d="M 626 495 Q 657.9 502.9 676 525.5 L 686 542.5 L 693 565.5 L 694 577.5 L 695 578.5 L 695 620.5 L 694 621.5 L 694 630.5 L 693 631.5 L 693 638.5 L 692 639.5 L 689 662.5 L 679 696.5 Q 666.7 727.2 643.5 747 Q 629.1 759.6 611.5 769 L 580.5 782 L 557.5 788 L 539.5 790 L 538.5 791 L 499.5 792 L 498.5 791 L 489.5 791 L 461.5 786 L 427.5 775 Q 411.5 768.5 398.5 759 L 382 743.5 Q 372.3 732.2 368 715.5 L 366 705.5 L 366 698.5 L 365 697.5 L 365 665.5 L 366 664.5 L 367 646.5 L 371 626.5 L 384 587.5 Q 397.5 554.5 422.5 533 Q 449.7 508.2 491.5 498 L 493 500.5 Q 487.1 507.1 485 517.5 L 485 534.5 Q 488.9 554.1 501.5 565 L 515.5 575 L 534.5 583 L 552.5 587 L 580.5 587 L 591.5 585 L 608.5 578 L 623 564.5 Q 630.2 555.2 633 541.5 L 634 536.5 L 634 516.5 Q 631.5 503.8 626 495 Z M 431 573 L 429 574 L 422 583 L 423 589 L 428 592 L 433 591 Q 438 588 439 581 L 438 576 Q 436 572 431 573 Z M 528 611 L 527 612 L 516 612 L 515 613 L 491 615 L 458 623 Q 431 632 413 648 Q 393 662 388 691 Q 387 719 400 734 Q 410 745 428 749 L 445 749 L 454 747 L 468 742 Q 487 729 511 720 L 528 715 L 538 713 L 545 713 L 546 712 L 568 712 Q 569 715 576 713 L 597 718 L 618 726 L 630 726 L 642 720 Q 651 713 656 701 L 659 693 L 662 678 L 661 656 L 654 641 Q 647 632 638 627 L 627 622 L 610 617 L 588 613 L 578 613 L 577 612 L 528 611 Z " /><path fill="rgb(0,0,0)" stroke="rgb(0,0,0)" stroke-width="1" opacity="0" d="M 530.5 518 Q 538.5 516.5 540 521.5 L 541 529.5 L 539 534 L 535.5 536 L 529.5 536 Q 523.6 533.9 525 524.5 L 530.5 518 Z " /><path fill="rgb(0,0,0)" stroke="rgb(0,0,0)" stroke-width="1" opacity="0" d="M 530.5 632 L 540.5 632 L 542 633.5 L 542 640.5 L 540 649.5 Q 537.8 656.3 532.5 660 L 521.5 661 L 515 656.5 Q 509.4 647.4 509 634 L 529.5 633 L 530.5 632 Z " /><path fill="rgb(0,0,0)" stroke="rgb(0,0,0)" stroke-width="1" opacity="0" d="M 558.5 632 L 572.5 632 L 573.5 633 L 586 634 L 587 638.5 L 584 651.5 L 577.5 659 Q 574 661.5 566.5 660 L 561 655.5 L 557 643.5 L 557 633.5 L 558.5 632 Z " /><path fill="rgb(0,0,0)" stroke="rgb(0,0,0)" stroke-width="1" opacity="0" d="M 490.5 636 Q 495 635 496 637.5 L 494 658.5 L 489 670 L 481.5 674 L 475.5 674 L 467 667.5 L 462 651.5 L 462 641 L 472.5 638 L 489.5 637 L 490.5 636 Z " /><path fill="rgb(0,0,0)" stroke="rgb(0,0,0)" stroke-width="1" opacity="0" d="M 607 639 Q 616.5 639.1 621 645.5 L 622 653.5 L 618.5 660 L 613.5 661 L 607 653.5 L 606 641.5 L 607 639 Z " /><path fill="rgb(2,2,2)" stroke="rgb(2,2,2)" stroke-width="1" opacity="0.984313725490196" d="M 333.5 187 L 347.5 189 Q 358.8 193.2 366 201.5 Q 375.6 211.9 381 226.5 L 388 249.5 L 393 275.5 L 394.5 277 L 425.5 247 L 432.5 245 L 436 247.5 L 437 253.5 L 412 284 L 399.5 294 L 395.5 296 L 387.5 297 Q 379.4 295.6 376 289.5 L 370 254.5 L 363 231.5 Q 357.6 218.9 347.5 211 L 335.5 206 L 315.5 206 L 300.5 209 L 292.5 212 Q 280.4 218.8 272 229.5 Q 264.6 239.1 261 252.5 L 260 273.5 Q 264.3 299.7 281.5 313 L 301 324 Q 303.6 326.3 303 332.5 L 282 363.5 L 263 401.5 L 256 420.5 L 249.5 430 Q 241.5 431.5 240 426.5 L 240 419.5 L 243 410.5 L 259 372.5 Q 268 351.5 281 334.5 L 259 314.5 Q 249.7 303.3 245 287.5 L 243 277.5 L 243 256.5 Q 248.3 224.8 268.5 208 Q 278.4 199.4 291.5 194 L 308.5 190 L 321.5 189 L 322.5 188 L 332.5 188 L 333.5 187 Z " /><path fill="rgb(2,2,2)" stroke="rgb(2,2,2)" stroke-width="1" opacity="0.984313725490196" d="M 689.5 192 L 708.5 193 L 726.5 199 Q 749.1 208.9 765 225.5 Q 774.6 235.9 779 251.5 L 780 272.5 Q 777.7 286.7 771 296.5 L 752.5 317 Q 737.8 328.3 720 336.5 L 720 340.5 L 727 361.5 L 734 393.5 L 735 404.5 L 739 422.5 L 743 456.5 L 745 463.5 L 745 471.5 L 746 472.5 L 748 496.5 L 750 505.5 L 751 526.5 L 752 527.5 L 752 539.5 L 753 540.5 L 753 553.5 L 754 554.5 L 757 602.5 L 758 603.5 L 762 635.5 L 769 665.5 L 769 674.5 L 766.5 678 L 762.5 679 L 758 677 L 752 659.5 L 743 612.5 L 743 605.5 L 742 604.5 L 740 581.5 L 739 580.5 L 737 549.5 L 736 548.5 L 736 537.5 L 734 526.5 L 733 505.5 L 732 504.5 L 731 487.5 L 730 486.5 L 730 479.5 L 729 478.5 L 729 471.5 L 728 470.5 L 726 449.5 L 723 436.5 L 723 430.5 L 712 373.5 L 702 340.5 L 702 330.5 L 705 325 L 732.5 312 L 751 295.5 L 760 281.5 L 762 275.5 L 763 263.5 L 761 253.5 L 757 244.5 L 742.5 228 Q 731.3 218.7 716.5 213 L 701.5 209 L 692.5 209 L 681.5 214 L 654 240.5 Q 640.4 255.9 631 275.5 L 625.5 281 L 619.5 282 L 616 280 L 615 273.5 L 619 266.5 L 616.5 268 L 593.5 281 L 581.5 285 L 574.5 285 Q 568 283.5 565 278.5 L 562.5 274 L 536.5 288 L 526.5 289 Q 522.8 287.8 524 281.5 L 530.5 276 L 546.5 268 L 583.5 244 L 589.5 241 L 593.5 241 Q 597 242 596 247.5 L 585.5 259 L 576 267.5 Q 574.2 273.2 580.5 271 Q 607.5 261.2 628 246 Q 645.1 221.8 667.5 202 L 676.5 196 L 689.5 192 Z " /><path fill="rgb(2,2,2)" stroke="rgb(2,2,2)" stroke-width="1" opacity="0.984313725490196" d="M 540.5 239 Q 548.2 237.3 550 241.5 L 551 245.5 L 546.5 251 L 529.5 261 L 507 278 Q 508.1 280.7 505.5 280 L 496.5 288 Q 493.8 290.8 487.5 290 Q 483.3 288.7 484 282.5 Q 490.9 270.9 501.5 263 Q 518.6 248.6 540.5 239 Z " /><path fill="rgb(2,2,2)" stroke="rgb(2,2,2)" stroke-width="1" opacity="0.984313725490196" d="M 483.5 242 Q 488.3 242.3 490 245.5 L 490 252.5 L 484 266.5 L 469 292 L 464.5 294 L 459 291.5 L 458 286.5 L 467 268.5 L 464.5 270 L 432.5 294 L 426.5 297 L 421.5 297 Q 417.3 296.3 418 290.5 L 425.5 282 L 466.5 251 L 477.5 244 L 483.5 242 Z " /><path fill="rgb(2,2,2)" stroke="rgb(2,2,2)" stroke-width="1" opacity="0.984313725490196" d="M 696.5 249 Q 703 248 704 252.5 L 704 255.5 L 699 264 L 696 265.5 L 680.5 282 L 674.5 286 L 670.5 286 L 666 282.5 L 666 276.5 L 679.5 261 L 696.5 249 Z " /><path fill="rgb(2,2,2)" stroke="rgb(2,2,2)" stroke-width="1" opacity="0.984313725490196" d="M 720.5 259 L 725 262.5 L 725 269.5 L 721 276.5 Q 713.8 288.3 703.5 297 L 697.5 301 L 691.5 301 Q 687.8 299.8 689 293.5 L 715.5 261 L 720.5 259 Z " /><path fill="rgb(2,2,2)" stroke="rgb(2,2,2)" stroke-width="1" opacity="0.984313725490196" d="M 320.5 260 L 325.5 260 L 330 264.5 L 339 282.5 L 340 293.5 Q 338.5 298.5 330.5 297 L 325 292.5 L 317 274.5 L 316 264.5 L 318.5 261 L 320.5 260 Z " /><path fill="rgb(2,2,2)" stroke="rgb(2,2,2)" stroke-width="1" opacity="0.984313725490196" d="M 290.5 263 Q 297 262 298 266.5 L 314 294.5 L 316 302.5 L 312.5 308 L 306.5 309 L 300 302.5 L 289 283.5 L 286 274.5 L 286 266.5 L 290.5 263 Z " /><path fill="rgb(2,2,2)" stroke="rgb(2,2,2)" stroke-width="1" opacity="0.984313725490196" d="M 654.5 344 L 668.5 344 L 674 348.5 L 674 351.5 L 669.5 358 L 660 362 L 669 373.5 L 674 383.5 Q 679.2 394.3 677 412.5 Q 672.8 436.3 657.5 449 Q 647.8 457.8 633.5 462 L 628.5 463 L 609.5 463 Q 585.1 457.9 573 440.5 Q 567 432 564 420.5 L 563 415.5 L 563 395.5 Q 565.3 383.3 571 374.5 L 566 370.5 L 564 365.5 L 567.5 360 L 586.5 354 L 597.5 353 L 621.5 348 L 653.5 345 L 654.5 344 Z M 619 371 L 618 372 L 604 373 L 592 378 L 585 385 L 580 397 Q 581 401 579 403 L 581 419 L 588 432 Q 597 443 614 446 L 623 446 L 633 444 L 647 436 Q 658 426 661 409 Q 662 392 655 383 L 643 372 L 639 371 L 619 371 Z " /><path fill="rgb(2,2,2)" stroke="rgb(2,2,2)" stroke-width="1" opacity="0.984313725490196" d="M 354.5 349 L 364.5 349 L 384.5 353 L 429.5 355 L 449.5 359 L 468.5 359 L 469.5 358 L 481.5 358 L 487 361.5 L 488 366.5 L 484.5 371 L 475.5 375 L 472.5 375 L 469 377.5 Q 480.9 391.1 480 417.5 L 478 428.5 L 471 445.5 Q 462.7 459.2 450.5 469 Q 441.5 476.5 429.5 481 L 416.5 484 L 409.5 484 L 406.5 483 Q 377.8 479.7 365 460.5 Q 357.5 451.5 354 438.5 L 352 427.5 L 352 411.5 L 358 390.5 L 371 371 L 355.5 365 L 350 359.5 L 349 354.5 L 352.5 350 L 354.5 349 Z M 395 377 L 387 381 L 377 392 L 370 412 Q 368 424 371 433 L 380 451 L 393 461 L 405 465 L 420 465 L 428 463 L 443 454 Q 457 443 462 422 L 462 405 Q 460 395 455 389 L 450 383 L 441 380 L 421 378 L 420 377 L 395 377 Z " /><path fill="rgb(2,2,2)" stroke="rgb(2,2,2)" stroke-width="1" opacity="0.984313725490196" d="M 620.5 388 Q 631.5 389 636 396.5 L 638 402.5 L 638 408.5 Q 636.4 415.4 631.5 419 Q 627 423.5 617.5 423 Q 610.6 421.4 607 416.5 Q 602.5 412 604 401.5 L 610.5 392 L 620.5 388 Z " /><path fill="rgb(2,2,2)" stroke="rgb(2,2,2)" stroke-width="1" opacity="0.984313725490196" d="M 282.5 393 L 285.5 393 L 289 395 L 290 399.5 L 240 500.5 L 236.5 504 Q 230.3 505.3 229 501.5 L 228 496.5 L 271 407.5 L 280.5 394 L 282.5 393 Z " /><path fill="rgb(2,2,2)" stroke="rgb(2,2,2)" stroke-width="1" opacity="0.984313725490196" d="M 411.5 403 Q 425 402 430 409.5 Q 436 414.5 434 427.5 L 427.5 438 Q 422.5 444 409.5 442 Q 401.6 439.9 398 433.5 L 396 428.5 L 396 419.5 Q 398.3 411.8 403.5 407 L 411.5 403 Z " /><path fill="rgb(2,2,2)" stroke="rgb(2,2,2)" stroke-width="1" opacity="0.984313725490196" d="M 279.5 449 Q 285.7 448.3 287 452.5 L 287 458.5 Q 257.1 513.1 231 571.5 L 228.5 574 L 224.5 575 L 220 571.5 L 219 566.5 L 270 460.5 L 277.5 450 L 279.5 449 Z " /><path fill="rgb(2,2,2)" stroke="rgb(2,2,2)" stroke-width="1" opacity="0.984313725490196" d="M 555.5 469 L 590.5 470 L 621.5 476 L 653.5 488 Q 669.7 496.3 682 508.5 Q 699.3 525.7 707 552.5 L 711 575.5 L 712 607.5 L 711 608.5 L 711 621.5 L 710 622.5 L 709 639.5 L 705 661.5 L 693 701.5 Q 679.7 733.2 656.5 755 Q 642.6 768.1 625.5 778 L 603.5 789 L 587.5 795 L 569.5 800 L 541.5 805 L 502.5 806 L 501.5 805 L 489.5 805 L 488.5 804 L 474.5 803 L 447.5 797 L 431.5 792 L 399.5 777 Q 383.7 767.8 372 754.5 Q 358.1 738.9 352 715.5 L 350 705.5 L 350 698.5 L 349 697.5 L 349 665.5 L 350 662.5 L 351 647.5 L 358 614.5 L 371 579.5 Q 386.3 545.3 412.5 522 L 440.5 502 L 470.5 488 L 497.5 479 Q 507.5 478.5 514.5 475 L 543.5 470 L 554.5 470 L 555.5 469 Z M 626 495 Q 631 504 634 517 L 634 537 L 633 542 Q 630 555 623 565 L 609 578 L 592 585 L 581 587 L 553 587 L 535 583 L 516 575 L 502 565 Q 489 554 485 535 L 485 518 Q 487 507 493 501 L 492 498 Q 450 508 423 533 Q 398 555 384 588 L 371 627 L 367 647 L 366 665 L 365 666 L 365 698 L 366 699 L 366 706 L 368 716 Q 372 732 382 744 L 399 759 Q 411 769 428 775 L 462 786 L 490 791 L 499 791 L 500 792 L 539 791 L 540 790 L 558 788 L 581 782 L 612 769 Q 629 760 644 747 Q 667 727 679 697 L 689 663 L 692 640 L 693 639 L 693 632 L 694 631 L 694 622 L 695 621 L 695 579 L 694 578 L 693 566 L 686 543 L 676 526 Q 658 503 626 495 Z M 531 518 L 525 525 Q 524 534 530 536 L 536 536 L 539 534 L 541 530 L 540 522 Q 538 517 531 518 Z " /><path fill="rgb(2,2,2)" stroke="rgb(2,2,2)" stroke-width="1" opacity="0.984313725490196" d="M 344.5 512 Q 349.5 511.5 350 515.5 L 349 524.5 L 340 541.5 L 336.5 545 L 330 544 Q 328.1 541.3 329 534.5 L 337 518.5 L 342.5 513 L 344.5 512 Z " /><path fill="rgb(2,2,2)" stroke="rgb(2,2,2)" stroke-width="1" opacity="0.984313725490196" d="M 366.5 517 Q 372.8 515.8 374 519.5 L 373 528.5 Q 368.4 540.4 360.5 549 L 354.5 550 L 352 549 Q 350.4 546.9 351 541.5 L 362 521.5 L 366.5 517 Z " /><path fill="rgb(2,2,2)" stroke="rgb(2,2,2)" stroke-width="1" opacity="0.984313725490196" d="M 276.5 518 Q 282.7 517.3 284 521.5 L 284 527.5 Q 250.2 593.7 221 664.5 L 216.5 669 Q 209.3 670.3 208 665.5 L 209 656.5 L 233 606.5 L 261 542.5 L 271 522.5 L 274.5 519 L 276.5 518 Z " /><path fill="rgb(2,2,2)" stroke="rgb(2,2,2)" stroke-width="1" opacity="0.984313725490196" d="M 430.5 573 Q 436.3 572.2 438 575.5 L 439 580.5 Q 437.9 587.9 432.5 591 L 427.5 592 L 423 588.5 L 422 582.5 L 428.5 574 L 430.5 573 Z " /><path fill="rgb(2,2,2)" stroke="rgb(2,2,2)" stroke-width="1" opacity="0.984313725490196" d="M 264.5 611 Q 269.6 610.4 271 613.5 L 272 619.5 L 249 667.5 L 211 755 Q 208.9 756.6 203.5 756 L 201 755 L 200 748.5 L 247 640.5 L 258 617.5 L 262.5 612 L 264.5 611 Z " /><path fill="rgb(2,2,2)" stroke="rgb(2,2,2)" stroke-width="1" opacity="0.984313725490196" d="M 527.5 611 L 576.5 612 L 577.5 613 L 587.5 613 L 609.5 617 L 626.5 622 L 637.5 627 Q 647.3 632.3 654 640.5 L 661 655.5 L 662 677.5 L 659 692.5 L 656 700.5 Q 651.2 712.7 641.5 720 L 629.5 726 L 617.5 726 L 596.5 718 L 575.5 713 Q 569.3 714.8 567.5 712 L 545.5 712 L 544.5 713 L 537.5 713 L 527.5 715 L 510.5 720 Q 487.2 729.2 467.5 742 L 453.5 747 L 444.5 749 L 427.5 749 Q 409.9 745.1 400 733.5 Q 386.6 719.4 388 690.5 Q 393.4 662.4 412.5 648 Q 431.3 631.8 457.5 623 L 490.5 615 L 514.5 613 L 515.5 612 L 526.5 612 L 527.5 611 Z M 531 632 L 530 633 L 509 634 Q 509 647 515 657 L 522 661 L 533 660 Q 538 656 540 650 L 542 641 L 542 634 L 541 632 L 531 632 Z M 559 632 L 557 634 L 557 644 L 561 656 L 567 660 Q 574 662 578 659 L 584 652 L 587 639 L 586 634 L 574 633 L 573 632 L 559 632 Z M 491 636 L 490 637 L 473 638 L 462 641 L 462 652 L 467 668 L 476 674 L 482 674 L 489 670 L 494 659 L 496 638 Q 495 635 491 636 Z M 607 639 L 606 642 L 607 654 L 614 661 L 619 660 L 622 654 L 621 646 Q 616 639 607 639 Z " /><path fill="rgb(2,2,2)" stroke="rgb(2,2,2)" stroke-width="1" opacity="0.984313725490196" d="M 740.5 665 Q 745.3 665.3 747 668.5 Q 756.7 703.8 770 735.5 L 770 741.5 L 769 744 Q 766.9 745.6 761.5 745 Q 756.2 740.8 754 733.5 L 747 715.5 L 735 679.5 L 734 671.5 L 737.5 666 L 740.5 665 Z " /><path fill="rgb(2,2,2)" stroke="rgb(2,2,2)" stroke-width="1" opacity="0.984313725490196" d="M 256.5 688 Q 264.5 686.5 266 691.5 L 266 695.5 L 264 700.5 L 249 728.5 L 215 802.5 L 209.5 811 L 202.5 812 Q 198 811 199 804.5 L 235 726.5 L 253 691.5 L 256.5 688 Z " /><path fill="rgb(2,2,2)" stroke="rgb(2,2,2)" stroke-width="1" opacity="0.984313725490196" d="M 312.5 721 L 318 723.5 L 319 729.5 L 317 733.5 L 316 744.5 L 315 745.5 L 315 770.5 L 316 771.5 L 316 781.5 L 313.5 785 L 307.5 786 L 305 783.5 L 302 769.5 L 302 743.5 L 306 728.5 L 310.5 722 L 312.5 721 Z " /><path fill="rgb(2,2,2)" stroke="rgb(2,2,2)" stroke-width="1" opacity="0.984313725490196" d="M 737.5 736 Q 743.1 736.5 745 740.5 L 773 800.5 L 776 812.5 L 772.5 817 L 768.5 818 L 763 813.5 L 734 751.5 L 732 746.5 L 732 740.5 L 733 738 L 737.5 736 Z " /><path fill="rgb(2,2,2)" stroke="rgb(2,2,2)" stroke-width="1" opacity="0.984313725490196" d="M 332.5 741 Q 338.5 739.5 340 742.5 L 349 781.5 L 349 789.5 Q 347.8 794.3 340.5 793 L 336 787.5 L 332 775.5 L 329 760.5 L 329 745.5 L 332.5 741 Z " /><path fill="rgb(2,2,2)" stroke="rgb(2,2,2)" stroke-width="1" opacity="0.984313725490196" d="M 698.5 787 Q 703.6 786.4 705 789.5 L 713 809.5 L 715 817.5 L 715 823.5 L 711.5 828 Q 704.6 828.9 703 824.5 L 694 799.5 L 694 790.5 L 698.5 787 Z " /><path fill="rgb(2,2,2)" stroke="rgb(2,2,2)" stroke-width="1" opacity="0.984313725490196" d="M 653.5 798 Q 660.3 796.3 662 799.5 L 668 818.5 L 668 829.5 Q 667 834 660.5 833 L 657 830.5 L 652 818.5 L 650 803.5 L 653.5 798 Z " /><path fill="rgb(2,2,2)" stroke="rgb(2,2,2)" stroke-width="1" opacity="0.984313725490196" d="M 391.5 800 L 397 802.5 Q 401.5 811.5 401 825.5 L 397.5 830 Q 390.3 831.3 389 826.5 L 386 816.5 L 386 804.5 L 391.5 800 Z " /></svg>